<svg id="svg" version="1.1" xmlns="http://www.w3.org/2000/svg" xmlns:xlink="http://www.w3.org/1999/xlink" width="400" height="400" viewBox="0, 0, 400,400"><g id="svgg"><path id="path0" d="M191.100 0.270 C 190.275 0.368,189.600 0.617,189.600 0.824 C 189.600 1.031,189.060 1.200,188.400 1.200 C 187.740 1.200,187.200 1.380,187.200 1.600 C 187.200 1.820,186.840 2.000,186.400 2.000 C 185.960 2.000,185.600 2.180,185.600 2.400 C 185.600 2.620,185.240 2.800,184.800 2.800 C 184.360 2.800,184.000 2.980,184.000 3.200 C 184.000 3.420,183.640 3.600,183.200 3.600 C 182.760 3.600,182.400 3.780,182.400 4.000 C 182.400 4.220,182.080 4.400,181.688 4.400 C 181.297 4.400,180.717 4.760,180.400 5.200 C 180.083 5.640,179.593 6.000,179.312 6.000 C 179.030 6.000,178.800 6.180,178.800 6.400 C 178.800 6.620,178.618 6.800,178.395 6.800 C 177.874 6.800,174.457 10.231,173.193 12.022 C 172.659 12.780,171.902 13.749,171.511 14.175 C 171.120 14.602,170.800 15.187,170.800 15.475 C 170.800 15.764,170.620 16.000,170.400 16.000 C 170.180 16.000,170.000 16.360,170.000 16.800 C 170.000 17.240,169.820 17.600,169.600 17.600 C 169.380 17.600,169.200 17.960,169.200 18.400 C 169.200 18.840,169.020 19.200,168.800 19.200 C 168.580 19.200,168.400 19.740,168.400 20.400 C 168.400 21.060,168.220 21.600,168.000 21.600 C 167.780 21.600,167.600 22.140,167.600 22.800 C 167.600 23.460,167.420 24.000,167.200 24.000 C 166.980 24.000,166.800 24.720,166.800 25.600 C 166.800 26.480,166.620 27.200,166.400 27.200 C 166.151 27.200,166.000 29.533,166.000 33.400 C 166.000 37.267,166.151 39.600,166.400 39.600 C 166.620 39.600,166.800 40.410,166.800 41.400 C 166.800 42.390,166.980 43.200,167.200 43.200 C 167.420 43.200,167.600 43.740,167.600 44.400 C 167.600 45.060,167.780 45.600,168.000 45.600 C 168.220 45.600,168.400 45.960,168.400 46.400 C 168.400 46.840,168.580 47.200,168.800 47.200 C 169.020 47.200,169.200 47.560,169.200 48.000 C 169.200 48.440,169.380 48.800,169.600 48.800 C 169.820 48.800,170.000 49.160,170.000 49.600 C 170.000 50.040,170.180 50.400,170.400 50.400 C 170.620 50.400,170.800 50.720,170.800 51.112 C 170.800 51.503,171.160 52.083,171.600 52.400 C 172.040 52.717,172.400 53.230,172.400 53.539 C 172.400 54.174,179.392 61.200,180.024 61.200 C 180.249 61.200,180.820 61.560,181.292 62.000 C 181.764 62.440,182.387 62.800,182.675 62.800 C 182.964 62.800,183.200 62.980,183.200 63.200 C 183.200 63.420,183.560 63.600,184.000 63.600 C 184.440 63.600,184.800 63.780,184.800 64.000 C 184.800 64.220,185.160 64.400,185.600 64.400 C 186.040 64.400,186.400 64.580,186.400 64.800 C 186.400 65.020,186.940 65.200,187.600 65.200 C 188.260 65.200,188.800 65.380,188.800 65.600 C 188.800 65.820,189.340 66.000,190.000 66.000 C 190.660 66.000,191.200 66.180,191.200 66.400 C 191.200 66.620,191.470 66.800,191.800 66.800 C 192.325 66.800,192.400 69.244,192.400 86.400 L 192.400 106.000 133.200 106.000 C 94.000 106.000,74.000 106.135,74.000 106.400 C 74.000 106.622,72.933 106.800,71.600 106.800 C 70.267 106.800,69.200 106.978,69.200 107.200 C 69.200 107.420,68.581 107.600,67.824 107.600 C 67.067 107.600,66.351 107.756,66.233 107.946 C 66.116 108.136,65.322 108.386,64.470 108.500 C 63.618 108.614,61.771 109.268,60.366 109.954 C 58.961 110.639,57.667 111.200,57.489 111.200 C 57.312 111.200,56.780 111.560,56.308 112.000 C 55.836 112.440,55.213 112.800,54.925 112.800 C 54.636 112.800,54.400 112.980,54.400 113.200 C 54.400 113.420,54.112 113.600,53.760 113.600 C 53.409 113.600,52.617 114.140,52.000 114.800 C 51.383 115.460,50.679 116.000,50.434 116.000 C 49.802 116.000,43.374 122.506,42.661 123.867 C 42.335 124.490,41.693 125.397,41.234 125.883 C 40.775 126.369,40.400 126.954,40.400 127.183 C 40.400 127.412,40.220 127.600,40.000 127.600 C 39.780 127.600,39.600 127.920,39.600 128.312 C 39.600 128.703,39.240 129.283,38.800 129.600 C 38.360 129.917,38.000 130.497,38.000 130.888 C 38.000 131.280,37.820 131.600,37.600 131.600 C 37.380 131.600,37.200 131.949,37.200 132.376 C 37.200 132.803,37.020 133.264,36.800 133.400 C 36.580 133.536,36.400 134.087,36.400 134.624 C 36.400 135.161,36.220 135.600,36.000 135.600 C 35.780 135.600,35.600 135.949,35.600 136.376 C 35.600 136.803,35.420 137.264,35.200 137.400 C 34.980 137.536,34.800 138.267,34.800 139.024 C 34.800 139.781,34.620 140.400,34.400 140.400 C 34.180 140.400,34.000 140.929,34.000 141.576 C 34.000 142.223,33.820 142.864,33.600 143.000 C 33.380 143.136,33.200 144.317,33.200 145.624 C 33.200 146.941,33.022 148.000,32.800 148.000 C 32.540 148.000,32.400 153.467,32.400 163.600 L 32.400 179.200 27.000 179.200 C 23.667 179.200,21.600 179.353,21.600 179.600 C 21.600 179.820,20.891 180.000,20.024 180.000 C 19.157 180.000,18.336 180.180,18.200 180.400 C 18.064 180.620,17.513 180.800,16.976 180.800 C 16.439 180.800,16.000 180.980,16.000 181.200 C 16.000 181.420,15.640 181.600,15.200 181.600 C 14.760 181.600,14.400 181.780,14.400 182.000 C 14.400 182.220,14.040 182.400,13.600 182.400 C 13.160 182.400,12.800 182.580,12.800 182.800 C 12.800 183.020,12.480 183.200,12.088 183.200 C 11.697 183.200,11.117 183.560,10.800 184.000 C 10.483 184.440,10.079 184.800,9.903 184.800 C 9.468 184.800,5.200 189.094,5.200 189.532 C 5.200 189.724,4.705 190.408,4.100 191.051 C 2.792 192.443,1.200 195.381,1.200 196.404 C 1.200 196.805,0.975 197.208,0.700 197.300 C -0.033 197.544,-0.033 255.656,0.700 255.900 C 0.975 255.992,1.200 256.376,1.200 256.754 C 1.200 257.621,2.102 259.593,2.500 259.597 C 2.665 259.599,2.800 259.920,2.800 260.312 C 2.800 260.703,3.160 261.283,3.600 261.600 C 4.040 261.917,4.400 262.407,4.400 262.688 C 4.400 263.315,10.150 269.200,10.761 269.200 C 11.003 269.200,11.200 269.350,11.200 269.533 C 11.200 269.995,15.944 272.400,16.856 272.400 C 17.265 272.400,17.600 272.560,17.600 272.756 C 17.600 273.347,20.285 273.681,26.500 273.865 L 32.400 274.040 32.400 289.620 C 32.400 299.740,32.540 305.200,32.800 305.200 C 33.026 305.200,33.200 306.333,33.200 307.800 C 33.200 309.267,33.374 310.400,33.600 310.400 C 33.820 310.400,34.000 311.019,34.000 311.776 C 34.000 312.533,34.180 313.264,34.400 313.400 C 34.620 313.536,34.800 314.177,34.800 314.824 C 34.800 315.471,34.980 316.000,35.200 316.000 C 35.420 316.000,35.600 316.349,35.600 316.776 C 35.600 317.203,35.780 317.664,36.000 317.800 C 36.220 317.936,36.400 318.487,36.400 319.024 C 36.400 319.561,36.580 320.000,36.800 320.000 C 37.020 320.000,37.200 320.360,37.200 320.800 C 37.200 321.240,37.380 321.600,37.600 321.600 C 37.820 321.600,38.000 321.960,38.000 322.400 C 38.000 322.840,38.180 323.200,38.400 323.200 C 38.620 323.200,38.800 323.430,38.800 323.712 C 38.800 323.993,39.160 324.483,39.600 324.800 C 40.040 325.117,40.400 325.657,40.400 326.000 C 40.400 326.343,40.760 326.883,41.200 327.200 C 41.640 327.517,42.000 328.084,42.000 328.460 C 42.000 329.243,50.554 338.000,51.319 338.000 C 51.596 338.000,52.083 338.360,52.400 338.800 C 52.717 339.240,53.134 339.600,53.327 339.600 C 53.519 339.600,54.184 339.961,54.805 340.403 C 55.425 340.845,56.488 341.318,57.166 341.453 C 57.845 341.589,58.400 341.858,58.400 342.050 C 58.400 342.243,58.670 342.400,59.000 342.400 C 59.330 342.400,59.600 342.580,59.600 342.800 C 59.600 343.020,59.960 343.200,60.400 343.200 C 60.840 343.200,61.200 343.380,61.200 343.600 C 61.200 343.820,61.562 344.000,62.005 344.000 C 62.448 344.000,63.168 344.180,63.605 344.400 C 64.042 344.620,64.758 344.980,65.195 345.200 C 65.632 345.420,66.532 345.600,67.195 345.600 C 67.858 345.600,68.400 345.780,68.400 346.000 C 68.400 346.220,69.300 346.400,70.400 346.400 C 71.500 346.400,72.400 346.580,72.400 346.800 C 72.400 347.035,73.800 347.200,75.800 347.200 L 79.200 347.200 79.200 371.800 C 79.200 387.933,79.338 396.400,79.600 396.400 C 79.820 396.400,80.000 396.678,80.000 397.018 C 80.000 399.725,89.846 401.281,91.913 398.900 C 92.342 398.405,92.948 398.000,93.259 398.000 C 93.569 398.000,94.083 397.640,94.400 397.200 C 94.717 396.760,95.257 396.400,95.600 396.400 C 95.943 396.400,96.483 396.040,96.800 395.600 C 97.117 395.160,97.657 394.800,98.000 394.800 C 98.343 394.800,98.883 394.440,99.200 394.000 C 99.517 393.560,100.057 393.200,100.400 393.200 C 100.743 393.200,101.283 392.840,101.600 392.400 C 101.917 391.960,102.475 391.600,102.839 391.600 C 103.204 391.600,103.726 391.330,104.000 391.000 C 104.274 390.670,104.718 390.400,104.987 390.400 C 105.256 390.400,105.802 390.040,106.200 389.600 C 106.598 389.160,107.165 388.800,107.459 388.800 C 107.753 388.800,108.218 388.440,108.493 388.000 C 108.768 387.560,109.269 387.200,109.608 387.200 C 109.946 387.200,110.483 386.840,110.800 386.400 C 111.117 385.960,111.657 385.600,112.000 385.600 C 112.343 385.600,112.883 385.240,113.200 384.800 C 113.517 384.360,114.057 384.000,114.400 384.000 C 114.743 384.000,115.283 383.640,115.600 383.200 C 115.917 382.760,116.457 382.400,116.800 382.400 C 117.143 382.400,117.683 382.040,118.000 381.600 C 118.317 381.160,118.857 380.800,119.200 380.800 C 119.543 380.800,120.083 380.440,120.400 380.000 C 120.717 379.560,121.257 379.200,121.600 379.200 C 121.943 379.200,122.483 378.840,122.800 378.400 C 123.117 377.960,123.605 377.600,123.885 377.600 C 124.164 377.600,124.618 377.240,124.893 376.800 C 125.168 376.360,125.709 376.000,126.096 376.000 C 126.483 376.000,126.800 375.855,126.800 375.677 C 126.800 375.499,127.520 375.036,128.400 374.648 C 129.280 374.260,130.000 373.775,130.000 373.571 C 130.000 373.367,130.236 373.200,130.525 373.200 C 130.813 373.200,131.436 372.840,131.908 372.400 C 132.380 371.960,133.004 371.600,133.295 371.600 C 133.586 371.600,134.083 371.240,134.400 370.800 C 134.717 370.360,135.257 370.000,135.600 370.000 C 135.943 370.000,136.483 369.640,136.800 369.200 C 137.117 368.760,137.657 368.400,138.000 368.400 C 138.343 368.400,138.883 368.040,139.200 367.600 C 139.517 367.160,140.005 366.800,140.285 366.800 C 140.564 366.800,141.018 366.440,141.293 366.000 C 141.568 365.560,142.069 365.200,142.408 365.200 C 142.746 365.200,143.283 364.840,143.600 364.400 C 143.917 363.960,144.457 363.600,144.800 363.600 C 145.143 363.600,145.683 363.240,146.000 362.800 C 146.317 362.360,146.857 362.000,147.200 362.000 C 147.543 362.000,148.083 361.640,148.400 361.200 C 148.717 360.760,149.231 360.400,149.541 360.400 C 149.852 360.400,150.397 360.069,150.753 359.664 C 151.109 359.259,151.895 358.806,152.500 358.656 C 153.105 358.507,153.600 358.208,153.600 357.992 C 153.600 357.777,153.842 357.600,154.138 357.600 C 154.434 357.600,155.002 357.240,155.400 356.800 C 155.798 356.360,156.338 356.000,156.600 356.000 C 156.862 356.000,157.402 355.640,157.800 355.200 C 158.198 354.760,158.726 354.400,158.974 354.400 C 159.221 354.400,159.683 354.040,160.000 353.600 C 160.317 353.160,160.857 352.800,161.200 352.800 C 161.543 352.800,162.083 352.440,162.400 352.000 C 162.717 351.560,163.257 351.200,163.600 351.200 C 163.943 351.200,164.483 350.840,164.800 350.400 C 165.117 349.960,165.657 349.600,166.000 349.600 C 166.343 349.600,166.883 349.240,167.200 348.800 C 167.517 348.360,168.176 348.000,168.665 348.000 C 169.153 348.000,169.664 347.820,169.800 347.600 C 169.963 347.336,196.737 347.200,248.824 347.200 C 301.075 347.200,327.600 347.065,327.600 346.800 C 327.600 346.580,328.500 346.400,329.600 346.400 C 330.700 346.400,331.600 346.220,331.600 346.000 C 331.600 345.780,332.320 345.600,333.200 345.600 C 334.080 345.600,334.800 345.420,334.800 345.200 C 334.800 344.980,335.149 344.800,335.576 344.800 C 336.003 344.800,336.464 344.620,336.600 344.400 C 336.736 344.180,337.287 344.000,337.824 344.000 C 338.361 344.000,338.800 343.820,338.800 343.600 C 338.800 343.380,339.160 343.200,339.600 343.200 C 340.040 343.200,340.400 343.020,340.400 342.800 C 340.400 342.580,340.670 342.400,341.000 342.400 C 341.330 342.400,341.600 342.243,341.600 342.050 C 341.600 341.858,342.155 341.589,342.834 341.453 C 343.512 341.318,344.575 340.845,345.195 340.403 C 345.816 339.961,346.481 339.600,346.673 339.600 C 346.866 339.600,347.283 339.240,347.600 338.800 C 347.917 338.360,348.404 338.000,348.681 338.000 C 349.460 338.000,357.809 329.428,358.385 328.035 C 358.667 327.356,359.055 326.800,359.249 326.800 C 359.442 326.800,359.600 326.480,359.600 326.088 C 359.600 325.697,359.960 325.117,360.400 324.800 C 360.840 324.483,361.200 323.993,361.200 323.712 C 361.200 323.430,361.380 323.200,361.600 323.200 C 361.820 323.200,362.000 322.840,362.000 322.400 C 362.000 321.960,362.180 321.600,362.400 321.600 C 362.620 321.600,362.800 321.240,362.800 320.800 C 362.800 320.360,362.980 320.000,363.200 320.000 C 363.420 320.000,363.600 319.561,363.600 319.024 C 363.600 318.487,363.780 317.936,364.000 317.800 C 364.220 317.664,364.400 317.203,364.400 316.776 C 364.400 316.349,364.580 316.000,364.800 316.000 C 365.020 316.000,365.200 315.471,365.200 314.824 C 365.200 314.177,365.380 313.536,365.600 313.400 C 365.820 313.264,366.000 312.533,366.000 311.776 C 366.000 311.019,366.180 310.400,366.400 310.400 C 366.626 310.400,366.800 309.267,366.800 307.800 C 366.800 306.333,366.974 305.200,367.200 305.200 C 367.460 305.200,367.600 299.740,367.600 289.620 L 367.600 274.040 373.500 273.865 C 379.715 273.681,382.400 273.347,382.400 272.756 C 382.400 272.560,382.735 272.400,383.144 272.400 C 384.056 272.400,388.800 269.995,388.800 269.533 C 388.800 269.350,388.997 269.200,389.239 269.200 C 389.850 269.200,395.600 263.315,395.600 262.688 C 395.600 262.407,395.960 261.917,396.400 261.600 C 396.840 261.283,397.200 260.703,397.200 260.312 C 397.200 259.920,397.335 259.599,397.500 259.597 C 397.898 259.593,398.800 257.621,398.800 256.754 C 398.800 256.376,399.025 255.992,399.300 255.900 C 399.694 255.769,399.800 249.551,399.800 226.600 C 399.800 203.649,399.694 197.431,399.300 197.300 C 399.025 197.208,398.800 196.805,398.800 196.404 C 398.800 195.381,397.208 192.443,395.900 191.051 C 395.295 190.408,394.800 189.724,394.800 189.532 C 394.800 189.094,390.532 184.800,390.097 184.800 C 389.921 184.800,389.517 184.440,389.200 184.000 C 388.883 183.560,388.303 183.200,387.912 183.200 C 387.520 183.200,387.200 183.020,387.200 182.800 C 387.200 182.580,386.840 182.400,386.400 182.400 C 385.960 182.400,385.600 182.220,385.600 182.000 C 385.600 181.780,385.240 181.600,384.800 181.600 C 384.360 181.600,384.000 181.420,384.000 181.200 C 384.000 180.980,383.561 180.800,383.024 180.800 C 382.487 180.800,381.936 180.620,381.800 180.400 C 381.664 180.180,380.843 180.000,379.976 180.000 C 379.109 180.000,378.400 179.820,378.400 179.600 C 378.400 179.353,376.333 179.200,373.000 179.200 L 367.600 179.200 367.600 163.824 C 367.600 154.004,367.455 148.358,367.200 148.200 C 366.980 148.064,366.800 146.883,366.800 145.576 C 366.800 144.259,366.622 143.200,366.400 143.200 C 366.180 143.200,366.000 142.570,366.000 141.800 C 366.000 141.030,365.820 140.400,365.600 140.400 C 365.380 140.400,365.200 139.781,365.200 139.024 C 365.200 138.267,365.020 137.536,364.800 137.400 C 364.580 137.264,364.400 136.803,364.400 136.376 C 364.400 135.949,364.220 135.600,364.000 135.600 C 363.780 135.600,363.600 135.161,363.600 134.624 C 363.600 134.087,363.420 133.536,363.200 133.400 C 362.980 133.264,362.800 132.803,362.800 132.376 C 362.800 131.949,362.620 131.600,362.400 131.600 C 362.180 131.600,362.000 131.280,362.000 130.888 C 362.000 130.497,361.640 129.917,361.200 129.600 C 360.760 129.283,360.400 128.703,360.400 128.312 C 360.400 127.920,360.220 127.600,360.000 127.600 C 359.780 127.600,359.600 127.412,359.600 127.183 C 359.600 126.954,359.417 126.549,359.193 126.283 C 357.646 124.449,357.200 123.838,357.200 123.554 C 357.200 123.049,350.086 116.000,349.576 116.000 C 349.326 116.000,348.617 115.460,348.000 114.800 C 347.383 114.140,346.591 113.600,346.240 113.600 C 345.888 113.600,345.600 113.420,345.600 113.200 C 345.600 112.980,345.364 112.800,345.075 112.800 C 344.787 112.800,344.164 112.440,343.692 112.000 C 343.220 111.560,342.556 111.200,342.217 111.200 C 341.878 111.200,341.600 111.020,341.600 110.800 C 341.600 110.580,341.328 110.400,340.995 110.400 C 340.662 110.400,340.077 110.235,339.695 110.034 C 337.828 109.049,335.979 108.400,335.040 108.400 C 334.468 108.400,334.000 108.220,334.000 108.000 C 334.000 107.780,333.280 107.600,332.400 107.600 C 331.520 107.600,330.800 107.420,330.800 107.200 C 330.800 106.978,329.733 106.800,328.400 106.800 C 327.067 106.800,326.000 106.622,326.000 106.400 C 326.000 106.135,306.000 106.000,266.800 106.000 L 207.600 106.000 207.600 86.400 C 207.600 69.244,207.675 66.800,208.200 66.800 C 208.530 66.800,208.800 66.620,208.800 66.400 C 208.800 66.180,209.340 66.000,210.000 66.000 C 210.660 66.000,211.200 65.820,211.200 65.600 C 211.200 65.380,211.740 65.200,212.400 65.200 C 213.060 65.200,213.600 65.020,213.600 64.800 C 213.600 64.580,213.960 64.400,214.400 64.400 C 214.840 64.400,215.200 64.220,215.200 64.000 C 215.200 63.780,215.560 63.600,216.000 63.600 C 216.440 63.600,216.800 63.420,216.800 63.200 C 216.800 62.980,217.120 62.800,217.512 62.800 C 217.903 62.800,218.483 62.440,218.800 62.000 C 219.117 61.560,219.603 61.200,219.881 61.200 C 220.579 61.200,227.600 54.232,227.600 53.539 C 227.600 53.230,227.960 52.717,228.400 52.400 C 228.840 52.083,229.200 51.503,229.200 51.112 C 229.200 50.720,229.380 50.400,229.600 50.400 C 229.820 50.400,230.000 50.040,230.000 49.600 C 230.000 49.160,230.180 48.800,230.400 48.800 C 230.620 48.800,230.800 48.440,230.800 48.000 C 230.800 47.560,230.980 47.200,231.200 47.200 C 231.420 47.200,231.600 46.840,231.600 46.400 C 231.600 45.960,231.780 45.600,232.000 45.600 C 232.220 45.600,232.400 45.060,232.400 44.400 C 232.400 43.740,232.580 43.200,232.800 43.200 C 233.020 43.200,233.200 42.401,233.200 41.424 C 233.200 40.447,233.380 39.536,233.600 39.400 C 233.838 39.253,234.000 36.729,234.000 33.176 C 234.000 29.459,233.849 27.200,233.600 27.200 C 233.380 27.200,233.200 26.480,233.200 25.600 C 233.200 24.720,233.020 24.000,232.800 24.000 C 232.580 24.000,232.400 23.460,232.400 22.800 C 232.400 22.140,232.220 21.600,232.000 21.600 C 231.780 21.600,231.600 21.060,231.600 20.400 C 231.600 19.740,231.420 19.200,231.200 19.200 C 230.980 19.200,230.800 18.840,230.800 18.400 C 230.800 17.960,230.620 17.600,230.400 17.600 C 230.180 17.600,230.000 17.240,230.000 16.800 C 230.000 16.360,229.820 16.000,229.600 16.000 C 229.380 16.000,229.200 15.764,229.200 15.475 C 229.200 15.187,228.880 14.602,228.489 14.175 C 228.098 13.749,227.344 12.770,226.812 12.000 C 225.577 10.209,222.174 6.800,221.623 6.800 C 221.390 6.800,221.200 6.620,221.200 6.400 C 221.200 6.180,220.970 6.000,220.688 6.000 C 220.407 6.000,219.917 5.640,219.600 5.200 C 219.283 4.760,218.703 4.400,218.312 4.400 C 217.920 4.400,217.600 4.220,217.600 4.000 C 217.600 3.780,217.240 3.600,216.800 3.600 C 216.360 3.600,216.000 3.420,216.000 3.200 C 216.000 2.980,215.640 2.800,215.200 2.800 C 214.760 2.800,214.400 2.620,214.400 2.400 C 214.400 2.180,214.040 2.000,213.600 2.000 C 213.160 2.000,212.800 1.820,212.800 1.600 C 212.800 1.380,212.275 1.200,211.633 1.200 C 210.992 1.200,210.392 0.977,210.301 0.704 C 210.135 0.204,194.609 -0.146,191.100 0.270 M206.200 14.397 C 206.860 14.680,207.978 15.162,208.684 15.467 C 220.316 20.495,223.525 37.326,214.649 46.750 C 208.385 53.401,196.747 55.320,190.342 50.759 C 189.756 50.342,189.109 50.000,188.904 50.000 C 188.222 50.000,183.331 44.626,182.461 42.920 C 176.585 31.401,182.732 17.060,194.869 13.973 C 196.778 13.488,204.781 13.787,206.200 14.397 M325.305 120.407 C 335.530 121.886,346.283 130.006,350.322 139.300 C 350.585 139.905,350.976 140.805,351.191 141.300 C 351.406 141.795,351.991 143.640,352.491 145.400 L 353.400 148.600 353.400 226.600 L 353.400 304.600 352.508 307.923 C 349.471 319.237,341.169 328.253,330.655 331.657 C 324.550 333.633,326.655 333.586,244.566 333.593 C 167.829 333.600,167.729 333.601,165.166 334.433 C 161.539 335.609,161.485 335.643,135.901 352.752 C 123.197 361.249,112.371 368.470,111.844 368.800 C 111.317 369.130,110.048 369.985,109.023 370.700 C 107.998 371.415,106.989 372.000,106.780 372.000 C 106.571 372.000,106.400 372.168,106.400 372.373 C 106.400 372.578,106.041 372.860,105.602 372.999 C 105.164 373.138,104.579 373.468,104.302 373.732 C 103.170 374.813,94.412 380.400,93.850 380.400 C 93.319 380.400,93.229 378.111,93.122 361.900 L 93.000 343.400 91.962 341.200 C 89.886 336.801,84.968 333.600,80.289 333.600 C 65.036 333.600,51.961 323.440,47.511 308.132 L 46.600 305.000 46.600 226.800 C 46.600 143.341,46.493 148.126,48.494 142.235 C 52.193 131.352,63.107 122.082,74.200 120.403 C 77.273 119.937,322.087 119.942,325.305 120.407 M114.600 173.978 C 113.940 174.147,112.410 174.518,111.200 174.803 C 109.990 175.089,108.730 175.460,108.400 175.628 C 108.070 175.797,106.900 176.331,105.800 176.815 C 90.837 183.398,83.196 201.786,88.770 217.800 C 97.210 242.054,130.802 247.433,146.200 226.996 C 159.284 209.631,153.156 185.338,133.447 176.437 C 131.126 175.389,129.890 175.013,125.523 174.025 C 123.400 173.544,116.418 173.515,114.600 173.978 M274.600 173.978 C 273.940 174.147,272.410 174.518,271.200 174.803 C 269.990 175.089,268.730 175.460,268.400 175.628 C 268.070 175.797,266.900 176.331,265.800 176.815 C 240.821 187.806,240.965 225.302,266.030 236.738 C 278.101 242.245,294.627 239.532,302.952 230.677 C 319.717 212.843,315.095 186.219,293.542 176.481 C 291.132 175.392,289.906 175.016,285.523 174.025 C 283.400 173.544,276.418 173.515,274.600 173.978 M124.880 187.362 C 144.259 192.497,145.094 219.227,126.076 225.655 C 111.708 230.511,96.802 216.739,100.603 202.120 C 103.421 191.283,114.428 184.592,124.880 187.362 M285.006 187.385 C 295.357 190.081,302.058 201.258,299.413 211.413 C 294.683 229.574,269.914 232.044,262.009 215.144 C 254.934 200.016,268.879 183.184,285.006 187.385 M32.567 193.443 C 33.137 193.661,33.200 196.980,33.200 226.884 L 33.200 260.082 28.300 259.933 C 19.904 259.678,15.663 256.614,13.747 249.417 C 12.974 246.516,12.972 207.223,13.744 203.941 C 15.061 198.348,19.390 194.294,24.800 193.591 C 27.689 193.215,31.771 193.137,32.567 193.443 M377.380 194.450 C 377.589 194.643,378.039 194.804,378.380 194.810 C 380.601 194.845,384.672 199.578,385.790 203.424 C 386.668 206.446,386.690 246.675,385.815 249.963 C 384.859 253.554,380.763 258.400,378.684 258.400 C 378.334 258.400,377.945 258.566,377.819 258.769 C 377.604 259.118,376.585 259.248,369.700 259.811 L 366.800 260.048 366.800 226.849 L 366.800 193.649 371.900 193.875 C 374.705 193.999,377.171 194.258,377.380 194.450 M164.648 254.014 C 161.028 255.098,159.173 260.183,161.191 263.492 C 165.489 270.542,177.157 276.916,189.600 279.013 C 199.014 280.599,213.847 279.287,221.600 276.182 C 234.754 270.914,242.768 261.502,238.502 256.331 C 235.174 252.295,231.843 252.600,227.006 257.382 C 213.821 270.420,185.455 270.115,172.390 256.795 C 169.366 253.712,167.679 253.106,164.648 254.014 " stroke="none" fill="#080908" fill-rule="evenodd"></path><path id="path1" d="M74.400 120.850 C 68.902 121.964,64.724 123.743,60.765 126.658 C 53.815 131.774,49.883 137.966,47.655 147.306 C 46.863 150.624,47.022 302.938,47.822 306.800 C 49.375 314.305,54.621 322.484,60.400 326.410 C 61.170 326.933,61.890 327.460,62.000 327.581 C 62.413 328.034,64.678 329.231,67.600 330.540 C 70.081 331.652,75.120 332.800,77.519 332.800 C 84.662 332.800,89.750 335.559,92.272 340.800 C 93.673 343.712,93.712 344.213,93.961 362.519 L 94.200 380.038 109.077 370.019 C 117.260 364.508,124.145 360.000,124.377 360.000 C 124.610 360.000,124.800 359.850,124.800 359.668 C 124.800 359.485,125.295 359.080,125.900 358.768 C 126.505 358.456,127.090 358.089,127.200 357.951 C 127.310 357.813,131.180 355.217,135.800 352.181 C 140.420 349.145,144.260 346.513,144.333 346.331 C 144.407 346.149,144.638 346.000,144.847 346.000 C 145.334 346.000,153.756 340.377,153.933 339.934 C 154.007 339.750,154.238 339.600,154.447 339.600 C 154.656 339.600,156.146 338.701,157.759 337.602 C 165.351 332.428,158.447 332.800,246.929 332.799 C 322.314 332.797,322.605 332.794,323.934 331.983 C 331.330 327.475,338.072 315.868,339.567 305.071 C 340.276 299.948,340.158 152.068,339.441 147.400 C 337.852 137.053,331.649 126.692,323.947 121.520 L 322.280 120.400 199.240 120.443 C 126.970 120.468,75.457 120.636,74.400 120.850 M126.672 173.600 C 127.402 173.820,128.675 174.192,129.500 174.426 C 136.589 176.442,143.674 181.622,147.932 187.904 C 154.855 198.119,155.421 212.260,149.340 223.134 C 145.562 229.890,138.557 235.906,131.800 238.199 C 124.532 240.665,115.889 240.820,109.400 238.601 C 90.137 232.014,80.991 210.363,89.714 192.000 C 93.562 183.899,101.879 176.847,110.400 174.461 C 111.170 174.245,112.340 173.892,113.000 173.677 C 114.603 173.154,124.995 173.095,126.672 173.600 M286.554 173.632 C 290.678 174.713,291.559 175.010,294.000 176.141 C 302.185 179.934,307.605 185.726,311.650 195.000 C 314.440 201.395,313.893 216.882,310.761 220.180 C 310.562 220.389,310.400 220.884,310.400 221.280 C 310.400 221.676,310.241 222.000,310.047 222.000 C 309.852 222.000,309.593 222.315,309.471 222.700 C 309.240 223.430,307.963 225.654,307.577 226.000 C 307.454 226.110,307.047 226.650,306.672 227.200 C 303.521 231.822,297.095 236.380,290.600 238.601 C 284.622 240.645,275.378 240.645,269.400 238.601 C 260.702 235.627,253.163 228.880,249.509 220.800 C 248.544 218.666,248.238 217.795,247.127 214.000 C 246.476 211.777,246.431 201.113,247.065 199.397 C 247.308 198.738,247.741 197.390,248.027 196.400 C 249.287 192.032,252.653 186.471,256.162 182.962 C 259.892 179.231,265.656 175.789,270.400 174.461 C 271.170 174.245,272.340 173.892,273.000 173.677 C 274.655 173.136,284.539 173.103,286.554 173.632 M169.392 253.597 C 169.966 253.815,171.740 255.345,173.334 256.997 C 174.927 258.649,176.415 260.000,176.640 260.000 C 176.865 260.000,177.398 260.315,177.825 260.701 C 178.251 261.086,179.500 261.825,180.600 262.344 C 181.700 262.863,182.870 263.419,183.200 263.580 C 184.080 264.009,190.188 265.458,193.246 265.963 C 199.678 267.025,211.495 265.852,216.600 263.644 C 221.388 261.573,223.232 260.372,226.400 257.259 C 231.689 252.063,235.429 251.702,238.904 256.054 C 240.535 258.096,240.485 263.117,238.821 264.400 C 238.678 264.510,238.146 265.194,237.639 265.920 C 235.518 268.956,227.431 274.442,222.200 276.394 C 221.760 276.559,220.950 276.882,220.400 277.113 C 219.850 277.344,218.950 277.650,218.400 277.794 C 217.850 277.937,216.770 278.237,216.000 278.460 C 206.351 281.261,191.369 280.858,181.000 277.520 C 177.020 276.239,170.874 273.363,170.000 272.374 C 169.890 272.249,168.925 271.551,167.854 270.823 C 165.996 269.558,162.878 266.622,161.600 264.933 C 157.073 258.950,162.543 250.993,169.392 253.597 " stroke="none" fill="#f3eb5c" fill-rule="evenodd"></path><path id="path2" d="M194.869 13.973 C 182.732 17.060,176.585 31.401,182.461 42.920 C 183.331 44.626,188.222 50.000,188.904 50.000 C 189.109 50.000,189.756 50.342,190.342 50.759 C 196.747 55.320,208.385 53.401,214.649 46.750 C 223.525 37.326,220.316 20.495,208.684 15.467 C 207.978 15.162,206.860 14.680,206.200 14.397 C 204.781 13.787,196.778 13.488,194.869 13.973 M114.793 187.396 C 104.734 190.160,97.982 201.387,100.559 211.065 C 105.464 229.485,129.866 232.275,137.967 215.341 C 145.267 200.082,131.044 182.931,114.793 187.396 M275.000 187.357 C 262.927 190.768,256.769 203.940,262.009 215.144 C 269.914 232.044,294.683 229.574,299.413 211.413 C 303.094 197.283,289.004 183.399,275.000 187.357 " stroke="none" fill="#04b8d1" fill-rule="evenodd"></path><path id="path3" d="M137.932 120.300 C 172.105 120.356,227.905 120.356,261.932 120.300 C 295.960 120.244,268.000 120.197,199.800 120.197 C 131.600 120.197,103.760 120.244,137.932 120.300 M72.200 120.800 C 71.106 121.270,72.933 121.270,74.400 120.800 C 75.375 120.488,75.370 120.479,74.200 120.468 C 73.540 120.462,72.640 120.611,72.200 120.800 M326.000 120.800 C 326.550 120.976,327.360 121.120,327.800 121.120 C 328.433 121.120,328.392 121.054,327.600 120.800 C 327.050 120.624,326.240 120.480,325.800 120.480 C 325.167 120.480,325.208 120.546,326.000 120.800 M68.000 122.150 C 58.614 126.058,51.503 133.380,48.494 142.235 C 46.493 148.126,46.600 143.341,46.600 226.800 L 46.600 305.000 47.511 308.132 C 50.427 318.165,56.477 325.594,65.400 330.099 C 67.600 331.210,72.506 332.818,73.542 332.768 C 74.220 332.736,73.575 332.492,70.400 331.580 C 59.375 328.415,50.504 318.841,47.813 307.200 C 46.737 302.546,46.925 149.750,48.012 145.400 C 50.676 134.737,58.018 126.538,68.600 122.408 C 70.756 121.567,71.348 121.253,70.800 121.244 C 70.470 121.238,69.210 121.646,68.000 122.150 M339.600 126.456 C 342.449 129.274,345.971 132.338,344.200 130.458 C 343.100 129.291,341.480 127.779,340.600 127.099 C 339.720 126.419,339.270 126.130,339.600 126.456 M347.437 134.900 C 348.249 136.165,348.988 137.200,349.079 137.200 C 349.347 137.200,347.900 134.882,346.890 133.694 C 346.379 133.092,346.625 133.635,347.437 134.900 M352.662 147.800 C 352.796 148.680,352.972 149.475,353.053 149.567 C 353.356 149.910,353.129 147.768,352.781 147.000 C 352.529 146.442,352.493 146.685,352.662 147.800 M353.396 226.600 C 353.396 266.860,353.443 283.271,353.500 263.068 C 353.557 242.866,353.557 209.926,353.500 189.868 C 353.443 169.811,353.396 186.340,353.396 226.600 M113.200 173.804 C 105.807 175.485,98.938 179.588,94.576 184.930 C 93.709 185.992,92.820 187.079,92.600 187.346 C 90.786 189.546,87.138 197.671,87.708 198.241 C 87.812 198.346,88.205 197.492,88.580 196.344 C 91.726 186.726,98.533 179.672,108.600 175.596 C 113.041 173.799,121.181 173.042,125.523 174.025 C 129.890 175.013,131.126 175.389,133.447 176.437 C 142.077 180.335,148.540 187.524,151.571 196.600 C 152.012 197.920,152.379 198.629,152.387 198.176 C 152.481 192.344,142.648 180.061,135.220 176.731 C 131.110 174.889,130.186 174.580,125.923 173.622 C 123.450 173.066,115.976 173.173,113.200 173.804 M273.800 173.659 C 266.387 175.401,261.594 178.003,256.600 182.999 C 252.900 186.700,249.555 191.289,250.135 191.868 C 250.270 192.004,250.506 191.774,250.659 191.357 C 252.864 185.356,262.071 177.641,270.141 175.033 C 274.324 173.681,281.830 173.189,285.523 174.025 C 289.906 175.016,291.132 175.392,293.542 176.481 C 311.161 184.442,318.285 205.440,309.121 222.400 C 308.230 224.050,307.225 225.715,306.888 226.100 C 306.551 226.485,306.439 226.798,306.638 226.795 C 306.837 226.792,307.437 226.117,307.972 225.295 C 319.810 207.082,312.075 183.123,291.800 175.204 C 290.980 174.883,289.032 174.329,286.200 173.611 C 284.237 173.112,275.989 173.144,273.800 173.659 M248.997 193.857 C 247.877 196.516,247.081 199.716,246.972 202.000 C 246.914 203.210,246.947 203.750,247.045 203.200 C 247.698 199.553,248.592 196.018,249.251 194.480 C 249.674 193.494,249.936 192.603,249.833 192.500 C 249.731 192.398,249.354 193.008,248.997 193.857 M24.800 193.591 C 19.390 194.294,15.061 198.348,13.744 203.941 C 12.972 207.223,12.974 246.516,13.747 249.417 C 15.663 256.614,19.904 259.678,28.300 259.933 L 33.200 260.082 33.200 226.884 C 33.200 196.980,33.137 193.661,32.567 193.443 C 31.771 193.137,27.689 193.215,24.800 193.591 M366.800 226.849 L 366.800 260.048 369.700 259.811 C 376.585 259.248,377.604 259.118,377.819 258.769 C 377.945 258.566,378.334 258.400,378.684 258.400 C 380.763 258.400,384.859 253.554,385.815 249.963 C 386.690 246.675,386.668 206.446,385.790 203.424 C 384.672 199.578,380.601 194.845,378.380 194.810 C 378.039 194.804,377.589 194.643,377.380 194.450 C 377.171 194.258,374.705 193.999,371.900 193.875 L 366.800 193.649 366.800 226.849 M87.011 200.475 C 86.849 201.506,86.802 202.586,86.906 202.875 C 87.010 203.164,87.227 202.556,87.389 201.525 C 87.551 200.494,87.598 199.414,87.494 199.125 C 87.390 198.836,87.173 199.444,87.011 200.475 M152.453 199.800 C 152.476 200.240,152.632 201.140,152.800 201.800 L 153.105 203.000 153.147 201.600 C 153.169 200.830,153.013 199.930,152.800 199.600 C 152.481 199.106,152.420 199.142,152.453 199.800 M86.540 206.800 C 86.540 208.670,86.609 209.435,86.693 208.500 C 86.777 207.565,86.777 206.035,86.693 205.100 C 86.609 204.165,86.540 204.930,86.540 206.800 M153.331 206.600 C 153.333 208.140,153.405 208.721,153.492 207.891 C 153.579 207.061,153.577 205.801,153.489 205.091 C 153.400 204.381,153.329 205.060,153.331 206.600 M246.509 206.800 C 246.509 207.790,246.587 208.195,246.682 207.700 C 246.778 207.205,246.778 206.395,246.682 205.900 C 246.587 205.405,246.509 205.810,246.509 206.800 M246.806 211.233 C 246.809 212.205,246.994 213.270,247.216 213.600 C 247.497 214.018,247.539 213.533,247.355 212.000 C 247.025 209.247,246.798 208.929,246.806 211.233 M86.880 211.400 C 86.880 212.060,87.024 213.050,87.200 213.600 C 87.511 214.572,87.520 214.567,87.520 213.400 C 87.520 212.740,87.376 211.750,87.200 211.200 C 86.889 210.228,86.880 210.233,86.880 211.400 M152.647 212.137 C 152.478 213.202,152.432 214.165,152.544 214.278 C 152.836 214.569,153.305 211.824,153.114 210.940 C 153.027 210.533,152.816 211.071,152.647 212.137 M247.622 215.081 C 247.610 215.566,247.765 216.376,247.967 216.881 C 248.170 217.387,248.444 218.141,248.577 218.557 C 248.710 218.974,248.897 219.237,248.992 219.141 C 249.087 219.046,248.823 217.895,248.404 216.584 C 247.986 215.273,247.633 214.597,247.622 215.081 M87.782 215.800 C 89.389 223.618,96.719 232.490,105.084 236.744 C 107.519 237.982,107.758 237.783,105.400 236.481 C 97.090 231.895,93.447 227.834,88.730 217.905 C 88.548 217.523,88.397 216.893,88.394 216.505 C 88.391 216.117,88.196 215.530,87.962 215.200 C 87.637 214.743,87.594 214.886,87.782 215.800 M151.353 217.297 C 150.889 218.673,150.382 220.160,150.227 220.600 C 150.042 221.123,150.157 221.054,150.558 220.400 C 151.348 219.112,152.505 215.716,152.332 215.195 C 152.258 214.974,151.818 215.920,151.353 217.297 M249.205 219.681 C 249.178 221.118,253.195 227.218,256.118 230.179 C 259.321 233.424,266.408 238.125,267.082 237.451 C 267.194 237.339,266.651 236.982,265.875 236.657 C 260.453 234.392,254.154 228.412,250.856 222.400 C 249.951 220.750,249.208 219.527,249.205 219.681 M148.554 223.469 C 145.547 228.673,141.219 232.838,135.600 235.936 C 132.261 237.777,132.072 238.180,135.313 236.551 C 140.956 233.713,151.320 223.187,149.884 221.751 C 149.767 221.633,149.168 222.406,148.554 223.469 M304.117 229.350 C 301.632 231.996,298.442 234.433,295.121 236.223 C 292.365 237.709,292.208 238.115,294.916 236.753 C 298.974 234.711,303.732 230.968,305.660 228.300 C 306.875 226.618,306.344 226.979,304.117 229.350 M108.000 238.000 C 108.330 238.213,108.870 238.388,109.200 238.388 C 109.733 238.388,109.733 238.345,109.200 238.000 C 108.870 237.787,108.330 237.612,108.000 237.612 C 107.467 237.612,107.467 237.655,108.000 238.000 M129.600 238.400 C 128.390 238.797,127.760 239.137,128.200 239.155 C 129.062 239.191,131.810 238.323,132.259 237.874 C 132.660 237.474,132.067 237.591,129.600 238.400 M268.000 238.000 C 268.330 238.213,268.870 238.388,269.200 238.388 C 269.733 238.388,269.733 238.345,269.200 238.000 C 268.870 237.787,268.330 237.612,268.000 237.612 C 267.467 237.612,267.467 237.655,268.000 238.000 M291.000 238.000 C 290.229 238.331,290.231 238.345,291.076 238.372 C 291.558 238.387,292.064 238.220,292.200 238.000 C 292.492 237.527,292.101 237.527,291.000 238.000 M110.200 238.800 C 110.336 239.020,110.932 239.187,111.524 239.172 C 112.485 239.147,112.514 239.107,111.800 238.800 C 110.689 238.322,109.905 238.322,110.200 238.800 M270.073 238.606 C 271.211 239.744,284.218 240.565,286.559 239.646 C 286.976 239.482,284.726 239.423,281.559 239.514 C 277.206 239.639,275.135 239.523,273.075 239.040 C 270.117 238.345,269.760 238.294,270.073 238.606 M288.200 238.800 C 287.486 239.107,287.515 239.147,288.476 239.172 C 289.068 239.187,289.664 239.020,289.800 238.800 C 290.095 238.322,289.311 238.322,288.200 238.800 M113.515 239.672 C 113.892 239.821,116.810 239.944,120.000 239.944 C 123.190 239.944,126.108 239.821,126.485 239.672 C 126.862 239.522,123.944 239.400,120.000 239.400 C 116.056 239.400,113.138 239.522,113.515 239.672 M163.794 253.947 C 158.418 256.389,158.642 262.018,164.337 267.619 C 181.379 284.380,217.810 284.588,235.356 268.024 C 240.946 262.747,241.711 257.135,237.200 254.497 C 236.477 254.075,236.367 254.063,236.802 254.456 C 241.850 259.012,240.382 264.028,232.199 270.187 C 229.344 272.337,224.836 274.886,221.600 276.182 C 210.670 280.559,191.336 280.822,180.200 276.746 C 176.265 275.305,173.145 273.763,170.000 271.703 C 160.784 265.669,157.972 259.517,162.498 255.290 C 165.428 252.555,168.735 253.154,172.777 257.153 C 176.724 261.057,184.029 265.301,185.724 264.675 C 185.986 264.578,185.660 264.364,185.000 264.199 C 181.536 263.333,176.953 260.582,173.697 257.414 C 169.175 253.015,167.295 252.357,163.794 253.947 M230.600 253.774 C 229.940 254.072,228.251 255.501,226.846 256.951 C 225.442 258.400,223.417 260.148,222.346 260.835 C 219.963 262.364,219.791 262.789,222.067 261.526 C 222.983 261.017,225.213 259.141,227.021 257.358 C 230.524 253.904,231.839 253.313,234.859 253.835 C 235.876 254.011,236.055 253.964,235.600 253.640 C 234.770 253.048,232.044 253.121,230.600 253.774 M218.646 262.725 C 218.536 262.903,217.220 263.436,215.723 263.909 C 210.435 265.576,210.543 265.535,211.430 265.568 C 211.886 265.586,213.524 265.170,215.070 264.644 C 218.362 263.524,220.530 262.440,219.524 262.416 C 219.152 262.407,218.757 262.546,218.646 262.725 M186.800 265.200 C 187.130 265.413,187.850 265.578,188.400 265.566 C 189.316 265.546,189.333 265.515,188.600 265.200 C 187.416 264.691,186.013 264.691,186.800 265.200 M190.400 266.000 C 190.950 266.176,192.030 266.317,192.800 266.313 L 194.200 266.305 193.000 266.000 C 191.239 265.552,189.001 265.552,190.400 266.000 M207.000 266.000 L 205.800 266.305 207.200 266.313 C 207.970 266.317,209.050 266.176,209.600 266.000 C 210.999 265.552,208.761 265.552,207.000 266.000 M197.500 266.696 C 198.875 266.774,201.125 266.774,202.500 266.696 C 203.875 266.618,202.750 266.554,200.000 266.554 C 197.250 266.554,196.125 266.618,197.500 266.696 M352.640 305.240 C 352.493 306.157,352.452 306.985,352.547 307.080 C 352.642 307.176,352.846 306.510,353.000 305.600 C 353.154 304.690,353.196 303.862,353.093 303.760 C 352.990 303.657,352.787 304.323,352.640 305.240 M351.829 309.029 C 351.681 309.615,351.638 310.172,351.732 310.266 C 351.827 310.360,352.024 309.958,352.171 309.371 C 352.319 308.785,352.362 308.228,352.268 308.134 C 352.173 308.040,351.976 308.442,351.829 309.029 M349.000 316.000 C 348.659 316.660,348.469 317.200,348.579 317.200 C 348.689 317.200,349.059 316.660,349.400 316.000 C 349.741 315.340,349.931 314.800,349.821 314.800 C 349.711 314.800,349.341 315.340,349.000 316.000 M345.404 321.196 C 344.774 321.854,344.335 322.456,344.429 322.534 C 344.523 322.612,345.113 322.074,345.739 321.338 C 347.154 319.677,346.945 319.588,345.404 321.196 M341.415 325.184 C 341.024 325.615,339.556 326.716,338.153 327.631 C 336.749 328.546,335.600 329.373,335.600 329.471 C 335.600 329.695,336.081 329.410,338.800 327.579 C 340.790 326.239,342.828 324.400,342.324 324.400 C 342.214 324.400,341.805 324.753,341.415 325.184 M327.000 332.400 C 326.496 332.617,326.422 332.744,326.800 332.744 C 327.130 332.744,327.760 332.589,328.200 332.400 C 328.704 332.183,328.778 332.056,328.400 332.056 C 328.070 332.056,327.440 332.211,327.000 332.400 M75.800 333.200 C 76.460 333.368,78.350 333.501,80.000 333.496 L 83.000 333.487 80.800 333.183 C 77.757 332.763,74.129 332.775,75.800 333.200 M244.200 333.200 L 167.400 333.403 244.600 333.478 C 287.060 333.520,322.520 333.405,323.400 333.223 L 325.000 332.892 323.000 332.944 C 321.900 332.973,286.440 333.088,244.200 333.200 M85.070 334.587 C 87.922 335.884,90.720 338.568,91.962 341.200 L 93.000 343.400 93.122 361.900 C 93.229 378.111,93.319 380.400,93.850 380.400 C 94.412 380.400,103.170 374.813,104.302 373.732 C 104.579 373.468,105.164 373.138,105.602 372.999 C 106.041 372.860,106.400 372.578,106.400 372.373 C 106.400 372.168,106.571 372.000,106.780 372.000 C 107.274 372.000,110.698 369.689,111.051 369.117 C 111.398 368.556,111.733 368.346,102.448 374.514 C 98.185 377.347,94.460 379.756,94.170 379.867 C 93.741 380.031,93.622 376.651,93.522 361.534 L 93.400 343.000 92.425 341.034 C 90.778 337.713,85.732 333.521,83.504 333.623 C 83.227 333.636,83.932 334.070,85.070 334.587 M162.547 334.968 C 159.580 336.360,111.447 368.381,111.797 368.730 C 111.906 368.839,112.311 368.656,112.698 368.323 C 113.522 367.613,158.279 337.752,160.530 336.410 C 161.371 335.908,163.261 335.081,164.730 334.572 C 166.337 334.015,167.002 333.643,166.400 333.638 C 165.850 333.633,164.116 334.231,162.547 334.968 " stroke="none" fill="#7c8c94" fill-rule="evenodd"></path><path id="path4" d="M323.947 121.520 C 331.649 126.692,337.852 137.053,339.441 147.400 C 340.158 152.068,340.276 299.948,339.567 305.071 C 338.072 315.868,331.330 327.475,323.934 331.983 L 322.600 332.797 324.080 332.799 C 326.098 332.801,331.038 331.470,333.851 330.166 C 343.560 325.667,350.530 316.554,352.621 305.623 C 353.705 299.962,353.463 151.602,352.363 146.522 C 349.573 133.644,339.609 123.678,326.800 120.953 C 322.581 120.056,321.953 120.180,323.947 121.520 M235.978 267.500 L 234.600 269.000 236.100 267.622 C 237.496 266.338,237.784 266.000,237.478 266.000 C 237.412 266.000,236.737 266.675,235.978 267.500 M207.468 333.100 C 228.186 333.157,262.206 333.157,283.068 333.100 C 303.931 333.043,286.980 332.996,245.400 332.996 C 203.820 332.996,186.751 333.043,207.468 333.100 M93.783 363.200 C 93.783 372.550,93.836 376.375,93.900 371.700 C 93.964 367.025,93.964 359.375,93.900 354.700 C 93.836 350.025,93.783 353.850,93.783 363.200 " stroke="none" fill="#fbc30c" fill-rule="evenodd"></path></g></svg>